<svg xmlns="http://www.w3.org/2000/svg" viewBox="0 0 1440 320" preserveAspectRatio="none">
  <!-- Mendoza Mountains Silhouette (Subtle) -->
  <path fill="rgba(255, 255, 255, 0.08)" d="M0,256L60,240C120,224,240,192,360,197.3C480,203,600,245,720,240C840,235,960,181,1080,181.3C1200,181,1320,235,1380,261.3L1440,288L1440,320L1380,320C1320,320,1200,320,1080,320C960,320,840,320,720,320C600,320,480,320,360,320C240,320,120,320,60,320L0,320Z"></path>
  <path fill="rgba(255, 255, 255, 0.15)" d="M0,224L48,234.7C96,245,192,267,288,256C384,245,480,203,576,192C672,181,768,203,864,224C960,245,1056,267,1152,256C1248,245,1344,203,1392,181.3L1440,160L1440,320L1392,320C1344,320,1248,320,1152,320C1056,320,960,320,864,320C768,320,672,320,576,320C480,320,384,320,288,320C192,320,96,320,48,320L0,320Z"></path>
  <path fill="rgba(255, 255, 255, 0.25)" d="M0,320L60,288C120,256,240,192,360,170.7C480,149,600,171,720,186.7C840,203,960,213,1080,202.7C1200,192,1320,160,1380,144L1440,128L1440,320L1380,320C1320,320,1200,320,1080,320C960,320,840,320,720,320C600,320,480,320,360,320C240,320,120,320,60,320L0,320Z"></path>
</svg>
