<svg width="100" height="100" viewBox="0 0 24 24" fill="none" xmlns="http://www.w3.org/2000/svg">
  <path d="M5 12.5556C5 12.5556 8.45 8.11111 12 8.11111C15.55 8.11111 19 12.5556 19 12.5556C19 12.5556 15.55 17 12 17C8.45 17 5 12.5556 5 12.5556Z" stroke="currentColor" stroke-width="1.5" stroke-linecap="round" stroke-linejoin="round"/>
  <path d="M12 13C12.5523 13 13 12.5523 13 12C13 11.4477 12.5523 11 12 11C11.4477 11 11 11.4477 11 12C11 12.5523 11.4477 13 12 13Z" fill="currentColor"/>
  <path d="M12 5V2M12 2L15 5M12 2L9 5" stroke="currentColor" stroke-width="1.5" stroke-linecap="round" stroke-linejoin="round"/>
</svg>
